ModelForces
version=1
nRows=4
nColumns=206
inDegrees=no

This file contains the forces exerted on a model during a simulation.

A force is a generalized force, meaning that it can be either a force (N) or a torque (Nm).

Units are S.I. units (second, meters, Newtons, ...)
Angles are in degrees.

endheader
time	glut_med1_r	glut_med2_r	glut_med3_r	glut_min1_r	glut_min2_r	glut_min3_r	semimem_r	semiten_r	bifemlh_r	bifemsh_r	sar_r	add_long_r	add_brev_r	add_mag1_r	add_mag2_r	add_mag3_r	tfl_r	pect_r	grac_r	glut_max1_r	glut_max2_r	glut_max3_r	iliacus_r	psoas_r	quad_fem_r	gem_r	peri_r	rect_fem_r	vas_med_r	vas_int_r	vas_lat_r	med_gas_r	lat_gas_r	soleus_r	tib_post_r	flex_dig_r	flex_hal_r	tib_ant_r	per_brev_r	per_long_r	per_tert_r	ext_dig_r	ext_hal_r	glut_med1_l	glut_med2_l	glut_med3_l	glut_min1_l	glut_min2_l	glut_min3_l	semimem_l	semiten_l	bifemlh_l	bifemsh_l	sar_l	add_long_l	add_brev_l	add_mag1_l	add_mag2_l	add_mag3_l	tfl_l	pect_l	grac_l	glut_max1_l	glut_max2_l	glut_max3_l	iliacus_l	psoas_l	quad_fem_l	gem_l	peri_l	rect_fem_l	vas_med_l	vas_int_l	vas_lat_l	med_gas_l	lat_gas_l	soleus_l	tib_post_l	flex_dig_l	flex_hal_l	tib_ant_l	per_brev_l	per_long_l	per_tert_l	ext_dig_l	ext_hal_l	ercspn_r	ercspn_l	intobl_r	intobl_l	extobl_r	extobl_l	femur_lat_meniscii_l.femur_lat_l.force.X	femur_lat_meniscii_l.femur_lat_l.force.Y	femur_lat_meniscii_l.femur_lat_l.force.Z	femur_lat_meniscii_l.femur_lat_l.torque.X	femur_lat_meniscii_l.femur_lat_l.torque.Y	femur_lat_meniscii_l.femur_lat_l.torque.Z	femur_lat_meniscii_l.meniscus_lat_l.force.X	femur_lat_meniscii_l.meniscus_lat_l.force.Y	femur_lat_meniscii_l.meniscus_lat_l.force.Z	femur_lat_meniscii_l.meniscus_lat_l.torque.X	femur_lat_meniscii_l.meniscus_lat_l.torque.Y	femur_lat_meniscii_l.meniscus_lat_l.torque.Z	femur_med_meniscii_l.femur_med_l.force.X	femur_med_meniscii_l.femur_med_l.force.Y	femur_med_meniscii_l.femur_med_l.force.Z	femur_med_meniscii_l.femur_med_l.torque.X	femur_med_meniscii_l.femur_med_l.torque.Y	femur_med_meniscii_l.femur_med_l.torque.Z	femur_med_meniscii_l.meniscus_med_l.force.X	femur_med_meniscii_l.meniscus_med_l.force.Y	femur_med_meniscii_l.meniscus_med_l.force.Z	femur_med_meniscii_l.meniscus_med_l.torque.X	femur_med_meniscii_l.meniscus_med_l.torque.Y	femur_med_meniscii_l.meniscus_med_l.torque.Z	femur_lat_meniscii_r.femur_lat_r.force.X	femur_lat_meniscii_r.femur_lat_r.force.Y	femur_lat_meniscii_r.femur_lat_r.force.Z	femur_lat_meniscii_r.femur_lat_r.torque.X	femur_lat_meniscii_r.femur_lat_r.torque.Y	femur_lat_meniscii_r.femur_lat_r.torque.Z	femur_lat_meniscii_r.meniscus_lat_r.force.X	femur_lat_meniscii_r.meniscus_lat_r.force.Y	femur_lat_meniscii_r.meniscus_lat_r.force.Z	femur_lat_meniscii_r.meniscus_lat_r.torque.X	femur_lat_meniscii_r.meniscus_lat_r.torque.Y	femur_lat_meniscii_r.meniscus_lat_r.torque.Z	femur_med_meniscii_r.femur_med_r.force.X	femur_med_meniscii_r.femur_med_r.force.Y	femur_med_meniscii_r.femur_med_r.force.Z	femur_med_meniscii_r.femur_med_r.torque.X	femur_med_meniscii_r.femur_med_r.torque.Y	femur_med_meniscii_r.femur_med_r.torque.Z	femur_med_meniscii_r.meniscus_med_r.force.X	femur_med_meniscii_r.meniscus_med_r.force.Y	femur_med_meniscii_r.meniscus_med_r.force.Z	femur_med_meniscii_r.meniscus_med_r.torque.X	femur_med_meniscii_r.meniscus_med_r.torque.Y	femur_med_meniscii_r.meniscus_med_r.torque.Z	femur_med_tibia_l.tibia_upper_l.force.X	femur_med_tibia_l.tibia_upper_l.force.Y	femur_med_tibia_l.tibia_upper_l.force.Z	femur_med_tibia_l.tibia_upper_l.torque.X	femur_med_tibia_l.tibia_upper_l.torque.Y	femur_med_tibia_l.tibia_upper_l.torque.Z	femur_med_tibia_l.femur_med_l.force.X	femur_med_tibia_l.femur_med_l.force.Y	femur_med_tibia_l.femur_med_l.force.Z	femur_med_tibia_l.femur_med_l.torque.X	femur_med_tibia_l.femur_med_l.torque.Y	femur_med_tibia_l.femur_med_l.torque.Z	femur_lat_tibia_l.tibia_upper_l.force.X	femur_lat_tibia_l.tibia_upper_l.force.Y	femur_lat_tibia_l.tibia_upper_l.force.Z	femur_lat_tibia_l.tibia_upper_l.torque.X	femur_lat_tibia_l.tibia_upper_l.torque.Y	femur_lat_tibia_l.tibia_upper_l.torque.Z	femur_lat_tibia_l.femur_lat_l.force.X	femur_lat_tibia_l.femur_lat_l.force.Y	femur_lat_tibia_l.femur_lat_l.force.Z	femur_lat_tibia_l.femur_lat_l.torque.X	femur_lat_tibia_l.femur_lat_l.torque.Y	femur_lat_tibia_l.femur_lat_l.torque.Z	femur_med_tibia_r.tibia_upper_r.force.X	femur_med_tibia_r.tibia_upper_r.force.Y	femur_med_tibia_r.tibia_upper_r.force.Z	femur_med_tibia_r.tibia_upper_r.torque.X	femur_med_tibia_r.tibia_upper_r.torque.Y	femur_med_tibia_r.tibia_upper_r.torque.Z	femur_med_tibia_r.femur_med_r.force.X	femur_med_tibia_r.femur_med_r.force.Y	femur_med_tibia_r.femur_med_r.force.Z	femur_med_tibia_r.femur_med_r.torque.X	femur_med_tibia_r.femur_med_r.torque.Y	femur_med_tibia_r.femur_med_r.torque.Z	femur_lat_tibia_r.tibia_upper_r.force.X	femur_lat_tibia_r.tibia_upper_r.force.Y	femur_lat_tibia_r.tibia_upper_r.force.Z	femur_lat_tibia_r.tibia_upper_r.torque.X	femur_lat_tibia_r.tibia_upper_r.torque.Y	femur_lat_tibia_r.tibia_upper_r.torque.Z	femur_lat_tibia_r.femur_lat_r.force.X	femur_lat_tibia_r.femur_lat_r.force.Y	femur_lat_tibia_r.femur_lat_r.force.Z	femur_lat_tibia_r.femur_lat_r.torque.X	femur_lat_tibia_r.femur_lat_r.torque.Y	femur_lat_tibia_r.femur_lat_r.torque.Z	aACL_R	pACL_R	aPCL_R	pPCL_R	aMCL_R	mMCL_R	pMCL_R	aLCL_R	mLCL_R	pLCL_R	aPCL_L	pPCL_L	aMCL_L	aLCL_L	ground_prescribedForce_-40_fx	ground_prescribedForce_-40_fy	ground_prescribedForce_-40_fz
      0.68270916	      7.55032011	      5.66738593	      6.06648541	      2.65966872	      3.17973917	      3.19374200	      3.81088534	      3.97401773	      5.77872139	      6.55335939	      1.54339992	      5.61491749	      4.14219247	      2.91975874	      2.45444123	      3.98874171	      4.27177917	      2.23933489	      1.53025329	      3.65712671	      5.55760817	      4.14863627	     22.65056435	     12.97018465	      3.62769581	      2.85479514	      4.09206122	     22.60905482	     12.27003450	     12.87007807	     17.38558229	      0.00000000	      1.08549555	     11.13015572	     14.29334583	      2.96832775	      3.46119439	     13.21219533	      3.88830595	      8.03549867	     10.22520042	      7.69484367	      1.40664824	      7.55032011	      5.66738593	      6.06648541	      2.65966872	      3.17973917	      3.19374200	      8.74870758	      4.08450400	      7.68577523	      7.21805459	      1.52016021	      5.61491749	      4.14219247	      2.91975874	      2.45444123	      3.98874171	      4.09781549	      2.23933489	      1.55913735	      3.65712671	      5.55760817	      4.14863627	     22.65056435	     12.97018465	      3.62769581	      2.85479514	      4.09206122	     10.67114320	      6.59462626	      7.56460686	      8.13398381	     13.96299953	      6.48335132	     31.10231281	     42.36543621	      2.63090338	      2.86288515	      8.45478681	      4.33584454	     12.45124143	      2.00640140	      5.34044141	      1.69603936	     25.01349907	     25.01349907	      9.00285886	      9.00285886	     26.80717705	     26.80717705	      2.76307435	     50.99597937	     -9.56042239	      5.21997485	     -0.02578839	      1.48581788	     -2.76307435	    -50.99597937	      9.56042239	     -1.74637766	      0.02558040	     -0.48301696	     -3.31599387	     20.97615968	     -3.40468921	      0.94473225	     -0.02138609	     -1.00501789	      3.31599387	    -20.97615968	      3.40468921	      0.28075727	      0.00368718	     -0.29758878	     93.47791692	     99.07803086	     35.26698316	    -16.95381735	      2.28344825	     38.49965661	    -93.47791692	    -99.07803086	    -35.26698316	      3.66727720	     -3.23564862	     -0.60755146	    217.67834295	    103.05665502	    -21.63783315	     10.76764130	     -4.10556218	     88.87421650	   -217.67834295	   -103.05665502	     21.63783315	     -1.96181693	      3.59205325	     -2.73265459	      0.00000000	      0.00000000	      0.00000000	      0.00000000	      0.00000000	      0.00000000	      0.00000000	      0.00000000	      0.00000000	      0.00000000	      0.00000000	      0.00000000	      0.00000000	      0.00000000	      0.00000000	      0.00000000	      0.00000000	      0.00000000	      0.00000000	      0.00000000	      0.00000000	      0.00000000	      0.00000000	      0.00000000	      0.00000000	      0.00000000	      0.00000000	      0.00000000	      0.00000000	      0.00000000	      0.00000000	      0.00000000	      0.00000000	      0.00000000	      0.00000000	      0.00000000	      0.00000000	      0.00000000	      0.00000000	      0.00000000	      0.00000000	      0.00000000	      0.00000000	      0.00000000	      0.00000000	      0.00000000	      0.00000000	      0.00000000	     29.21584283	     28.22523223	    159.21423324	     89.15440990	      5.98763436	      7.41405969	      3.57704798	     -0.70675722	      0.00000000	      0.00000000	      0.00000000	      0.00000000	      0.00000001	      0.00000000	     84.26488000	    -70.70660000	      0.00000000
      0.68640527	      7.55009706	      5.66723222	      6.06631884	      2.65959965	      3.17966446	      3.19364784	      3.79220289	      3.96146538	      5.77086035	      6.50878535	      1.51077102	      5.61476344	      4.14208587	      2.91968014	      2.45437358	      3.98861990	      4.26922525	      2.23927637	      1.51998886	      3.65702761	      5.55745712	      4.14852144	     22.65028569	     12.96987139	      3.62759955	      2.85475011	      4.09188018	     22.58348796	     12.18676724	     12.79345156	     17.30290487	      0.00000000	      1.07548875	     11.10133161	     14.23737502	      2.93634358	      3.48243201	     13.25723469	      3.88470884	      8.03899881	     10.23081730	      7.80669295	      1.41720932	      7.55009706	      5.66723222	      6.06631884	      2.65959965	      3.17966446	      3.19364784	      8.74838222	      4.08438449	      7.68550474	      7.21786295	      1.52012091	      5.61476344	      4.14208587	      2.91968014	      2.45437358	      3.98861990	      4.09774017	      2.23927637	      1.55909635	      3.65702761	      5.55745712	      4.14852144	     22.65028569	     12.96987139	      3.62759955	      2.85475011	      4.09188018	     10.67077512	      6.59444335	      7.56439299	      8.13375502	     13.96215105	      6.48295659	     31.10094109	     42.36490132	      2.62817170	      2.86152201	      8.45450994	      4.33567824	     12.45083122	      2.00635280	      5.34165039	      1.69637938	     25.01284797	     25.01284797	      9.00260365	      9.00260365	     26.80694781	     26.80694781	      2.76307435	     50.99597937	     -9.56042239	      5.21997485	     -0.02578839	      1.48581788	     -2.76307435	    -50.99597937	      9.56042239	     -1.74637766	      0.02558040	     -0.48301696	     -3.31599387	     20.97615968	     -3.40468921	      0.94473225	     -0.02138609	     -1.00501789	      3.31599387	    -20.97615968	      3.40468921	      0.28075727	      0.00368718	     -0.29758878	     93.63980606	     99.05812967	     34.68202150	    -16.70788029	      2.28304204	     38.56828357	    -93.63980606	    -99.05812967	    -34.68202150	      3.64777291	     -3.22615966	     -0.61290113	    217.16714019	    102.43490687	    -22.80987679	     11.24068146	     -4.10843628	     88.67003727	   -217.16714019	   -102.43490687	     22.80987679	     -1.98282183	      3.61690274	     -2.73565345	      0.00000000	      0.00000000	      0.00000000	      0.00000000	      0.00000000	      0.00000000	      0.00000000	      0.00000000	      0.00000000	      0.00000000	      0.00000000	      0.00000000	      0.00000000	      0.00000000	      0.00000000	      0.00000000	      0.00000000	      0.00000000	      0.00000000	      0.00000000	      0.00000000	      0.00000000	      0.00000000	      0.00000000	      0.00000000	      0.00000000	      0.00000000	      0.00000000	      0.00000000	      0.00000000	      0.00000000	      0.00000000	      0.00000000	      0.00000000	      0.00000000	      0.00000000	      0.00000000	      0.00000000	      0.00000000	      0.00000000	      0.00000000	      0.00000000	      0.00000000	      0.00000000	      0.00000000	      0.00000000	      0.00000000	      0.00000000	     29.74465313	     28.77442047	    159.31235525	     89.81134994	      6.79285278	      8.21884930	      4.36121387	      0.22225848	      0.00000000	      0.00000000	      0.00000000	      0.00000000	      0.00000001	      0.00000000	     84.26488000	    -70.70660000	      0.00000000
      0.69010138	      7.54988437	      5.66708566	      6.06616001	      2.65953379	      3.17959323	      3.19355806	      3.79809489	      3.96317342	      5.77775309	      6.55932068	      1.53990394	      5.61461654	      4.14198422	      2.91960518	      2.45430908	      3.98850374	      4.27491476	      2.23922056	      1.52668477	      3.65693312	      5.55731309	      4.14841195	     22.65001999	     12.96957270	      3.62750776	      2.85470717	      4.09170755	     22.59847730	     12.19553067	     12.80848849	     17.31968111	      0.00000000	      1.08507791	     11.11468074	     14.18967304	      2.90313606	      3.49758440	     13.28349122	      3.88590521	      8.04666503	     10.23904874	      7.92693675	      1.42951848	      7.54988437	      5.66708566	      6.06616001	      2.65953379	      3.17959323	      3.19355806	      8.74807198	      4.08427054	      7.68524681	      7.21768020	      1.52008343	      5.61461654	      4.14198422	      2.91960518	      2.45430908	      3.98850374	      4.09766836	      2.23922056	      1.55905725	      3.65693312	      5.55731309	      4.14841195	     22.65001999	     12.96957270	      3.62750776	      2.85470717	      4.09170755	     10.67042415	      6.59426893	      7.56418905	      8.13353686	     13.96134149	      6.48257996	     31.09963304	     42.36439128	      2.62542647	      2.86015896	      8.45424593	      4.33551966	     12.45043999	      2.00630646	      5.34287533	      1.69672326	     25.01222713	     25.01222713	      9.00236030	      9.00236030	     26.80672922	     26.80672922	      2.76307435	     50.99597937	     -9.56042239	      5.21997485	     -0.02578839	      1.48581788	     -2.76307435	    -50.99597937	      9.56042239	     -1.74637766	      0.02558040	     -0.48301696	     -3.31599387	     20.97615968	     -3.40468921	      0.94473225	     -0.02138609	     -1.00501789	      3.31599387	    -20.97615968	      3.40468921	      0.28075727	      0.00368718	     -0.29758878	     93.84386943	     99.35131082	     35.20735932	    -16.93459344	      2.29099614	     38.65245156	    -93.84386943	    -99.35131082	    -35.20735932	      3.67159349	     -3.24361431	     -0.61224844	    217.04859889	    102.94145154	    -21.67483854	     10.78118701	     -4.09416029	     88.61693207	   -217.04859889	   -102.94145154	     21.67483854	     -1.96156486	      3.58460173	     -2.71862516	      0.00000000	      0.00000000	      0.00000000	      0.00000000	      0.00000000	      0.00000000	      0.00000000	      0.00000000	      0.00000000	      0.00000000	      0.00000000	      0.00000000	      0.00000000	      0.00000000	      0.00000000	      0.00000000	      0.00000000	      0.00000000	      0.00000000	      0.00000000	      0.00000000	      0.00000000	      0.00000000	      0.00000000	      0.00000000	      0.00000000	      0.00000000	      0.00000000	      0.00000000	      0.00000000	      0.00000000	      0.00000000	      0.00000000	      0.00000000	      0.00000000	      0.00000000	      0.00000000	      0.00000000	      0.00000000	      0.00000000	      0.00000000	      0.00000000	      0.00000000	      0.00000000	      0.00000000	      0.00000000	      0.00000000	      0.00000000	     29.41481321	     28.41729290	    159.11683815	     89.21311361	      5.90694733	      7.33669489	      3.47791861	     -0.52284901	      0.00000000	      0.00000000	      0.00000000	      0.00000000	      0.00000001	      0.00000000	     84.26488000	    -70.70660000	      0.00000000
      0.69379749	      7.54968157	      5.66694591	      6.06600856	      2.65947098	      3.17952530	      3.19347245	      3.77999889	      3.95097292	      5.77215217	      6.51869080	      1.50866483	      5.61447647	      4.14188730	      2.91953372	      2.45424757	      3.98839298	      4.27269967	      2.23916735	      1.51673369	      3.65684302	      5.55717575	      4.14830754	     22.64976664	     12.96928789	      3.62742024	      2.85466623	      4.09154292	     22.57337011	     12.11374941	     12.73357707	     17.23997924	      0.00000000	      1.07643358	     11.09857479	     14.15848910	      2.87054465	      3.50714375	     13.32454878	      3.87871285	      8.04474368	     10.24113340	      8.05552240	      1.44617964	      7.54968157	      5.66694591	      6.06600856	      2.65947098	      3.17952530	      3.19347245	      8.74777616	      4.08416188	      7.68500087	      7.21750595	      1.52004770	      5.61447647	      4.14188730	      2.91953372	      2.45424757	      3.98839298	      4.09759988	      2.23916735	      1.55901996	      3.65684302	      5.55717575	      4.14830754	     22.64976664	     12.96928789	      3.62742024	      2.85466623	      4.09154292	     10.67008949	      6.59410263	      7.56399460	      8.13332884	     13.96056905	      6.48222060	     31.09838570	     42.36390491	      2.62266727	      2.85879579	      8.45399420	      4.33536845	     12.45006686	      2.00626227	      5.34411577	      1.69707087	     25.01163514	     25.01163514	      9.00212826	      9.00212826	     26.80652079	     26.80652079	      2.76307435	     50.99597937	     -9.56042239	      5.21997485	     -0.02578839	      1.48581788	     -2.76307435	    -50.99597937	      9.56042239	     -1.74637766	      0.02558040	     -0.48301696	     -3.31599387	     20.97615968	     -3.40468921	      0.94473225	     -0.02138609	     -1.00501789	      3.31599387	    -20.97615968	      3.40468921	      0.28075727	      0.00368718	     -0.29758878	     94.01842630	     99.18208372	     34.61244218	    -16.68139108	      2.29049380	     38.72729762	    -94.01842630	    -99.18208372	    -34.61244218	      3.64802438	     -3.23382279	     -0.62140625	    216.68602948	    102.27310570	    -22.90008552	     11.27570985	     -4.10027713	     88.47453763	   -216.68602948	   -102.27310570	     22.90008552	     -1.98367457	      3.61315546	     -2.72661404	      0.00000000	      0.00000000	      0.00000000	      0.00000000	      0.00000000	      0.00000000	      0.00000000	      0.00000000	      0.00000000	      0.00000000	      0.00000000	      0.00000000	      0.00000000	      0.00000000	      0.00000000	      0.00000000	      0.00000000	      0.00000000	      0.00000000	      0.00000000	      0.00000000	      0.00000000	      0.00000000	      0.00000000	      0.00000000	      0.00000000	      0.00000000	      0.00000000	      0.00000000	      0.00000000	      0.00000000	      0.00000000	      0.00000000	      0.00000000	      0.00000000	      0.00000000	      0.00000000	      0.00000000	      0.00000000	      0.00000000	      0.00000000	      0.00000000	      0.00000000	      0.00000000	      0.00000000	      0.00000000	      0.00000000	      0.00000000	     29.92027568	     28.94390081	    159.22849564	     89.84927763	      6.67353493	      8.10126802	      4.22415417	      0.38209340	      0.00000000	      0.00000000	      0.00000000	      0.00000000	      0.00000001	      0.00000000	     84.26488000	    -70.70660000	      0.00000000
